<svg width="15" height="22" viewBox="0 0 15 22" fill="none" xmlns="http://www.w3.org/2000/svg">
    <path d="M13.8247 10.2086H7.8912C8.00627 9.80729 8.22518 9.16394 8.59325 8.49062C9.01434 7.72031 9.6265 6.91838 10.4943 6.39092L10.4944 6.39086C10.7209 6.25296 10.7934 5.95746 10.6553 5.73058L10.6552 5.73047C10.5174 5.50467 10.2223 5.43152 9.99506 5.56967L9.99506 5.56967C8.87057 6.25315 8.12621 7.28182 7.64582 8.2127C7.20778 9.0615 6.98578 9.83562 6.89459 10.2086H1.38076C1.11528 10.2086 0.900177 10.4235 0.900177 10.6891V13.1779C0.900177 13.4434 1.11513 13.6585 1.38076 13.6585H2.00776L2.63397 20.6869C2.63397 20.687 2.63398 20.687 2.63398 20.687C2.656 20.9348 2.86398 21.1249 3.11264 21.1249H12.0928C12.3414 21.1249 12.5494 20.9349 12.5715 20.687C12.5715 20.687 12.5715 20.687 12.5715 20.6869L13.1977 13.6585H13.8247C14.0902 13.6585 14.3053 13.4436 14.3053 13.1779V10.689V10.689C14.3051 10.4234 14.0903 10.2086 13.8247 10.2086ZM12.233 13.6584L11.6531 20.1637H3.55229L2.97248 13.6584H12.233ZM13.3441 12.6973H12.758H2.44741H1.86135V11.1696H13.3442L13.3441 12.6973Z" fill="currentColor" stroke="currentColor" stroke-width="0.25"/>
    <path d="M6.71333 4.75199L6.71327 4.75191C6.47296 4.47524 6.11668 4.31101 5.7503 4.21626C5.43899 4.13575 5.12993 4.10787 4.89926 4.10015C4.87464 4.32969 4.85924 4.6396 4.8957 4.95906C4.93861 5.33499 5.05179 5.7106 5.29235 5.98711L5.2924 5.98717C5.63766 6.3845 6.06513 6.68041 6.45952 6.80395C6.55969 6.83504 6.69803 6.86748 6.83773 6.86756C6.97761 6.86764 7.10649 6.83549 7.20375 6.7509L6.71333 4.75199ZM6.71333 4.75199C7.05901 5.14933 7.2923 5.61374 7.35967 6.02148L7.35968 6.02157M6.71333 4.75199L7.35968 6.02157M7.35968 6.02157C7.37681 6.12476 7.38974 6.26617 7.37036 6.4045M7.35968 6.02157L7.37036 6.4045M7.37036 6.4045C7.35096 6.54293 7.30112 6.66616 7.20378 6.75088L7.37036 6.4045ZM7.8343 7.47646L7.83433 7.47644C8.25915 7.10708 8.41741 6.52683 8.30787 5.86487L8.30786 5.86483C8.209 5.26844 7.89855 4.65061 7.43869 4.12144L7.43869 4.12144C6.93819 3.54557 6.20167 3.30344 5.59582 3.2035C4.99013 3.10358 4.49428 3.14233 4.44423 3.14707C4.23672 3.16518 4.06499 3.31539 4.01821 3.51773L4.0182 3.51773L4.01813 3.51804C4.00817 3.56164 3.89974 4.04866 3.9144 4.66522C3.929 5.27906 4.06609 6.04221 4.56681 6.61809L4.56684 6.61812C5.02677 7.14672 5.59554 7.54048 6.17229 7.72109C6.40187 7.79314 6.62559 7.82964 6.83813 7.82964C7.21954 7.82964 7.5632 7.71202 7.8343 7.47646Z" fill="currentColor" stroke="currentColor" stroke-width="0.25"/>
    <path d="M14.8397 5.79982V5.79981C14.8396 4.84854 14.066 4.07485 13.1147 4.07485C12.6935 4.07485 12.3509 3.73225 12.3509 3.31104C12.3509 2.88983 12.6935 2.54723 13.1147 2.54723C13.5359 2.54723 13.8785 2.88983 13.8785 3.31104C13.8785 3.57652 14.0935 3.79163 14.3591 3.79163C14.6247 3.79163 14.8397 3.57665 14.8397 3.31104C14.8397 2.46282 14.2231 1.7647 13.4176 1.62099V1.35558C13.4176 1.09011 13.2026 0.875 12.937 0.875C12.6715 0.875 12.4564 1.08996 12.4564 1.35558V1.72368C11.8331 1.98262 11.3898 2.59265 11.3898 3.31104C11.3898 4.26233 12.1634 5.03602 13.1147 5.03602C13.5359 5.03602 13.8785 5.37861 13.8785 5.79982C13.8785 6.22103 13.5359 6.56363 13.1147 6.56363C12.6935 6.56363 12.3509 6.22103 12.3509 5.79982C12.3509 5.53434 12.136 5.31924 11.8703 5.31924C11.6047 5.31924 11.3898 5.53422 11.3898 5.79982C11.3898 6.51811 11.833 7.12824 12.4564 7.38719V7.90253C12.4564 8.16801 12.6714 8.38311 12.937 8.38311C13.2025 8.38311 13.4176 8.16816 13.4176 7.90253V7.48988C14.2231 7.34617 14.8397 6.64805 14.8397 5.79982Z" fill="currentColor" stroke="currentColor" stroke-width="0.25"/>
</svg>
