<svg width="45" height="50" viewBox="0 0 45 50" fill="none" xmlns="http://www.w3.org/2000/svg">
    <path d="M19.8287 0.668754L2.49424 10.6758C0.951616 11.5673 0 13.2101 0 14.9931V35.0071C0 36.7902 0.951616 38.433 2.49424 39.3245L13.1724 45.49C7.18722 42.0341 8.45938 36.5447 11.6047 31.1856C13.8285 27.3942 22.969 11.5422 28.1278 2.58702L24.8122 0.673764C23.2696 -0.217752 21.3713 -0.217752 19.8287 0.673764V0.668754Z" fill="url(#paint0_linear_154_327)"/>
    <path d="M44.6409 35.007V14.993C44.6409 13.21 43.6893 11.5672 42.1467 10.6756L24.8122 0.668637C23.2696 -0.222879 21.3713 -0.222879 19.8287 0.668637L9.15057 6.83412C15.1357 3.37825 19.2527 7.22478 22.318 12.629C24.4866 16.4505 33.6472 32.2874 38.826 41.2376L42.1417 39.3244C43.6843 38.4328 44.6359 36.79 44.6359 35.007H44.6409Z" fill="url(#paint1_linear_154_327)"/>
    <path d="M44.6409 22.676C44.6409 29.5878 39.2517 31.2306 33.0362 31.1855C30.0461 31.1655 20.605 31.1604 11.6198 31.1655C11.6198 31.1705 11.6148 31.1755 11.6097 31.1855C8.4644 36.5446 7.19224 42.0339 13.1724 45.4898L19.8287 49.3313C21.3713 50.2229 23.2696 50.2229 24.8122 49.3313L42.1467 39.3243C43.6893 38.4328 44.6409 36.79 44.6409 35.007V22.681V22.676Z" fill="url(#paint2_linear_154_327)"/>
    <defs>
        <linearGradient id="paint0_linear_154_327" x1="16.1424" y1="5.06623" x2="0.245416" y2="46.1861" gradientUnits="userSpaceOnUse">
            <stop stop-color="#421260"/>
            <stop offset="0.41" stop-color="#57167F"/>
            <stop offset="0.76" stop-color="#651993"/>
            <stop offset="1" stop-color="#6A1B9A"/>
        </linearGradient>
        <linearGradient id="paint1_linear_154_327" x1="38.0948" y1="32.3876" x2="20.8204" y2="-1.66032" gradientUnits="userSpaceOnUse">
            <stop stop-color="#421260"/>
            <stop offset="0.41" stop-color="#57167F"/>
            <stop offset="0.76" stop-color="#651993"/>
            <stop offset="1" stop-color="#6A1B9A"/>
        </linearGradient>
        <linearGradient id="paint2_linear_154_327" x1="11.5196" y1="36.7199" x2="50.6962" y2="36.0337" gradientUnits="userSpaceOnUse">
            <stop stop-color="#421260"/>
            <stop offset="0.41" stop-color="#57167F"/>
            <stop offset="0.76" stop-color="#651993"/>
            <stop offset="1" stop-color="#6A1B9A"/>
        </linearGradient>
    </defs>
</svg>
