<svg width="21" height="20" viewBox="0 0 21 20" fill="none" xmlns="http://www.w3.org/2000/svg">
    <path fill-rule="evenodd" clip-rule="evenodd" d="M18.8168 0H5.06683C4.03121 0 3.19183 0.83875 3.19183 1.875V3.125H2.56683C1.53121 3.125 0.691833 3.96375 0.691833 5V17.5C0.691833 18.8806 1.81121 20 3.19183 20H18.1918C19.5725 20 20.6918 18.8806 20.6918 17.5V1.875C20.6918 0.83875 19.8518 0 18.8168 0ZM19.4418 17.5C19.4418 18.1887 18.8806 18.75 18.1918 18.75H3.19183C2.50246 18.75 1.94183 18.1887 1.94183 17.5V5C1.94183 4.655 2.22183 4.375 2.56683 4.375H3.19183V16.875C3.19183 17.2206 3.47121 17.5 3.81683 17.5C4.16246 17.5 4.44183 17.2206 4.44183 16.875V1.875C4.44183 1.53 4.72183 1.25 5.06683 1.25H18.8168C19.1612 1.25 19.4418 1.53 19.4418 1.875V17.5Z" fill="currentColor"/>
    <path fill-rule="evenodd" clip-rule="evenodd" d="M12.8781 8.12817H17.8781C18.0512 8.12817 18.1906 7.98817 18.1906 7.81567C18.1906 7.64317 18.0512 7.50317 17.8781 7.50317H12.8781C12.7062 7.50317 12.5656 7.64317 12.5656 7.81567C12.5656 7.98817 12.7062 8.12817 12.8781 8.12817Z" fill="currentColor"/>
    <path fill-rule="evenodd" clip-rule="evenodd" d="M12.8781 6.25317H17.8781C18.0512 6.25317 18.1906 6.11317 18.1906 5.94067C18.1906 5.76817 18.0512 5.62817 17.8781 5.62817H12.8781C12.7062 5.62817 12.5656 5.76817 12.5656 5.94067C12.5656 6.11317 12.7062 6.25317 12.8781 6.25317Z" fill="currentColor"/>
    <path fill-rule="evenodd" clip-rule="evenodd" d="M12.8781 4.37817H17.8781C18.0512 4.37817 18.1906 4.23817 18.1906 4.06567C18.1906 3.89317 18.0512 3.75317 17.8781 3.75317H12.8781C12.7062 3.75317 12.5656 3.89317 12.5656 4.06567C12.5656 4.23817 12.7062 4.37817 12.8781 4.37817Z" fill="currentColor"/>
    <path fill-rule="evenodd" clip-rule="evenodd" d="M11.0043 16.8777H6.00433C5.83183 16.8777 5.69183 17.0183 5.69183 17.1902C5.69183 17.3633 5.83183 17.5027 6.00433 17.5027H11.0043C11.1762 17.5027 11.3168 17.3633 11.3168 17.1902C11.3168 17.0183 11.1768 16.8777 11.0043 16.8777Z" fill="currentColor"/>
    <path fill-rule="evenodd" clip-rule="evenodd" d="M11.0043 15.0024H6.00433C5.83183 15.0024 5.69183 15.1431 5.69183 15.3149C5.69183 15.4881 5.83183 15.6274 6.00433 15.6274H11.0043C11.1762 15.6274 11.3168 15.4881 11.3168 15.3149C11.3168 15.1431 11.1768 15.0024 11.0043 15.0024Z" fill="currentColor"/>
    <path fill-rule="evenodd" clip-rule="evenodd" d="M11.0043 13.1274H6.00433C5.83183 13.1274 5.69183 13.2681 5.69183 13.4399C5.69183 13.6131 5.83183 13.7524 6.00433 13.7524H11.0043C11.1762 13.7524 11.3168 13.6131 11.3168 13.4399C11.3168 13.2681 11.1768 13.1274 11.0043 13.1274Z" fill="currentColor"/>
    <path fill-rule="evenodd" clip-rule="evenodd" d="M17.8793 16.8777H12.8793C12.7062 16.8777 12.5668 17.0183 12.5668 17.1902C12.5668 17.3633 12.7062 17.5027 12.8793 17.5027H17.8793C18.0512 17.5027 18.1918 17.3633 18.1918 17.1902C18.1918 17.0183 18.0512 16.8777 17.8793 16.8777Z" fill="currentColor"/>
    <path fill-rule="evenodd" clip-rule="evenodd" d="M17.8793 15.0024H12.8793C12.7062 15.0024 12.5668 15.1431 12.5668 15.3149C12.5668 15.4881 12.7062 15.6274 12.8793 15.6274H17.8793C18.0512 15.6274 18.1918 15.4881 18.1918 15.3149C18.1918 15.1431 18.0512 15.0024 17.8793 15.0024Z" fill="currentColor"/>
    <path fill-rule="evenodd" clip-rule="evenodd" d="M17.8793 13.1274H12.8793C12.7062 13.1274 12.5668 13.2681 12.5668 13.4399C12.5668 13.6131 12.7062 13.7524 12.8793 13.7524H17.8793C18.0512 13.7524 18.1918 13.6131 18.1918 13.4399C18.1918 13.2681 18.0512 13.1274 17.8793 13.1274Z" fill="currentColor"/>
    <path fill-rule="evenodd" clip-rule="evenodd" d="M17.8793 9.37744H6.00433C5.83183 9.37744 5.69183 9.51744 5.69183 9.68994C5.69183 9.86244 5.83183 10.0024 6.00433 10.0024H17.8793C18.0512 10.0024 18.1918 9.86244 18.1918 9.68994C18.1918 9.51744 18.0512 9.37744 17.8793 9.37744Z" fill="currentColor"/>
    <path fill-rule="evenodd" clip-rule="evenodd" d="M17.8793 11.2524H6.00433C5.83183 11.2524 5.69183 11.3931 5.69183 11.5649C5.69183 11.7381 5.83183 11.8774 6.00433 11.8774H17.8793C18.0512 11.8774 18.1918 11.7381 18.1918 11.5649C18.1918 11.3931 18.0512 11.2524 17.8793 11.2524Z" fill="currentColor"/>
    <path fill-rule="evenodd" clip-rule="evenodd" d="M6.31683 8.12494H10.6918C11.0375 8.12494 11.3168 7.84557 11.3168 7.49994V3.12744C11.3168 2.78182 11.0375 2.50244 10.6918 2.50244H6.31683C5.97121 2.50244 5.69183 2.78182 5.69183 3.12744V7.49994C5.69183 7.84494 5.97121 8.12494 6.31683 8.12494ZM6.94183 3.74994H10.0668V6.87494H6.94183V3.74994Z" fill="currentColor"/>
</svg>
