<svg width="27" height="20" viewBox="0 0 27 20" fill="none" xmlns="http://www.w3.org/2000/svg">
    <path d="M26.1268 5.45728L15.6489 0.338728C14.7456 -0.112909 13.21 -0.112909 12.3067 0.338728L1.58789 5.45728C0.835158 5.81859 0.714722 6.33045 0.714722 6.60143C0.714722 6.87241 0.835158 7.35416 1.58789 7.74558L2.46105 8.1671V12.9846C1.91909 13.1953 1.52767 13.7373 1.52767 14.3395C1.52767 14.9417 1.91909 15.4836 2.43094 15.6944L1.07603 20H4.86978L3.51487 15.6944C4.05684 15.4836 4.41815 14.9417 4.41815 14.3395C4.41815 13.7072 4.02673 13.1953 3.48476 12.9846V8.67896L5.08055 9.4618V15.7245C5.08055 15.8148 5.11066 15.9052 5.17088 15.9955C5.32142 16.1761 8.12157 20 13.8423 20C19.563 20 22.3632 16.146 22.4836 15.9955C22.5439 15.9052 22.574 15.8148 22.574 15.7245V9.49191L26.1268 7.74558C26.8796 7.38427 27 6.87241 27 6.60143C26.9699 6.33045 26.8796 5.81859 26.1268 5.45728ZM21.6105 15.574C21.1287 16.1761 18.5393 19.0666 13.8423 19.0666C9.14528 19.0666 6.5559 16.1761 6.07415 15.574V9.88333L12.3067 12.8641C12.7584 13.0749 13.3606 13.1953 13.9627 13.1953C14.595 13.1953 15.1972 13.0749 15.6489 12.834L21.6105 9.91343V15.574ZM25.7053 6.90252L22.0922 8.67896C21.9417 8.67896 21.8212 8.73918 21.761 8.85962L15.2273 12.0211C14.595 12.3523 13.3606 12.3523 12.6982 12.0211L4.65902 8.1671L13.9025 7.08318C14.1735 7.05307 14.3542 6.81219 14.3241 6.57132C14.2939 6.30034 14.0531 6.11968 13.8122 6.14979L3.09334 7.41438L2.00941 6.90252C1.73843 6.78208 1.67821 6.63154 1.67821 6.63154C1.67821 6.60143 1.73843 6.48099 2.00941 6.36056L12.7283 1.21189C13.0595 1.06135 13.5111 0.97102 13.9627 0.97102C14.4445 0.97102 14.9262 1.06135 15.2273 1.21189L25.7053 6.33045C25.9763 6.45088 26.0365 6.57132 26.0365 6.63154C26.0365 6.63154 25.9462 6.78208 25.7053 6.90252Z" fill="currentColor"/>
</svg>
