<svg width="22" height="15" viewBox="0 0 22 15" fill="none" xmlns="http://www.w3.org/2000/svg">
    <path d="M7.36768 10.5615C10.008 10.5615 12.1484 8.42111 12.1484 5.78076C12.1484 3.14042 10.008 1 7.36768 1C4.72733 1 2.58691 3.14042 2.58691 5.78076C2.58691 8.42111 4.72733 10.5615 7.36768 10.5615Z" stroke="#6A1B9A" stroke-miterlimit="10"/>
    <path d="M13.564 1.17468C13.9866 1.06006 14.4224 1.00133 14.8603 1C16.1282 1 17.3442 1.50369 18.2408 2.40025C19.1374 3.29682 19.6411 4.51283 19.6411 5.78076C19.6411 7.0487 19.1374 8.26471 18.2408 9.16127C17.3442 10.0578 16.1282 10.5615 14.8603 10.5615" stroke="#6A1B9A" stroke-linecap="round" stroke-linejoin="round"/>
    <path d="M0.748047 13.9998C1.49453 12.9376 2.4857 12.0706 3.63784 11.472C4.78998 10.8735 6.06924 10.561 7.36757 10.561C8.66589 10.561 9.94515 10.8735 11.0973 11.472C12.2494 12.0706 13.2406 12.9376 13.9871 13.9998" stroke="#6A1B9A" stroke-linecap="round" stroke-linejoin="round"/>
    <path d="M14.8604 10.5613C16.1588 10.5605 17.4383 10.8726 18.5906 11.4711C19.7428 12.0696 20.7339 12.937 21.4799 13.9998" stroke="#6A1B9A" stroke-linecap="round" stroke-linejoin="round"/>
</svg>
